<?xml version="1.0" standalone="no"?>
<!DOCTYPE svg PUBLIC "-//W3C//DTD SVG 20010904//EN"
 "http://www.w3.org/TR/2001/REC-SVG-20010904/DTD/svg10.dtd">
<svg version="1.0" xmlns="http://www.w3.org/2000/svg"
 width="512.000000pt" height="512.000000pt" viewBox="0 0 512.000000 512.000000"
 preserveAspectRatio="xMidYMid meet">

<g transform="translate(0.000000,512.000000) scale(0.100000,-0.100000)"
fill="#000000" stroke="none">
<path d="M3305 5109 c-30 -8 -2694 -1541 -2809 -1616 -67 -43 -129 -125 -167
-220 l-24 -58 -3 -923 c-2 -887 -2 -925 17 -966 17 -40 31 -50 185 -139 91
-54 168 -97 170 -97 2 0 -3 15 -12 33 -16 29 -17 111 -17 952 l0 920 28 75
c32 86 91 171 151 216 32 24 2708 1573 2803 1623 12 6 34 11 50 11 21 0 -11
23 -134 94 -89 51 -172 96 -185 99 -13 2 -36 1 -53 -4z"/>
<path d="M4203 2757 l-243 -141 0 -84 0 -83 48 28 c26 15 61 35 77 45 17 10
33 18 38 18 4 0 7 -135 7 -300 0 -165 3 -300 6 -300 3 0 37 18 75 40 l69 41 0
307 0 307 88 50 87 50 3 83 c2 45 -1 82 -5 81 -4 0 -117 -64 -250 -142z"/>
<path d="M3685 2458 l-71 -41 -123 -454 c-68 -250 -121 -456 -118 -459 3 -3
37 13 76 36 l70 41 17 75 c10 40 20 77 23 82 9 12 236 142 249 142 6 0 18 -22
27 -50 9 -27 19 -50 23 -50 15 0 152 85 152 94 0 23 -235 619 -245 622 -5 2
-42 -16 -80 -38z m49 -335 c26 -76 32 -104 23 -111 -29 -23 -140 -82 -145 -78
-2 3 13 73 34 155 21 83 42 147 46 143 3 -4 22 -53 42 -109z"/>
<path d="M3233 2197 l-73 -42 0 -160 0 -161 -112 -64 c-61 -36 -115 -66 -120
-68 -4 -2 -8 66 -8 152 0 86 -2 156 -4 156 -2 0 -36 -18 -75 -41 l-71 -41 0
-390 0 -389 58 32 c31 18 65 37 75 43 15 10 17 29 17 161 l0 151 118 67 117
67 3 -145 c1 -80 6 -145 9 -145 4 0 37 18 75 40 l68 41 0 389 c0 215 -1 390
-2 389 -2 0 -36 -19 -75 -42z"/>
<path d="M2481 1765 c-65 -31 -182 -147 -230 -227 -18 -32 -47 -97 -64 -145
-27 -78 -31 -101 -31 -203 -1 -106 1 -119 27 -170 34 -69 66 -92 134 -98 45
-4 63 0 118 27 74 37 169 133 227 230 l36 63 -38 34 c-20 19 -41 34 -46 34 -5
0 -18 -16 -28 -35 -27 -50 -102 -124 -142 -141 -147 -61 -189 189 -62 373 57
83 148 118 206 78 21 -16 22 -14 65 77 54 113 50 121 -51 126 -56 2 -76 -1
-121 -23z"/>
<path d="M1195 1272 l-170 -98 0 -98 0 -98 170 -99 170 -98 3 150 c1 83 1 215
0 295 l-3 144 -170 -98z"/>
</g>
</svg>
